<svg width="70" height="71" viewBox="0 0 70 71" fill="none" xmlns="http://www.w3.org/2000/svg">
<g clip-path="url(#clip0_187_29)">
<path d="M70 54.7406C70 63.3916 63.0275 70.4064 54.4239 70.4064H15.5761C6.97255 70.4011 0 63.3916 0 54.7406V15.6658C0 7.01478 6.97255 0 15.5761 0H54.4292C63.0327 0 70.0053 7.01478 70.0053 15.6658V54.7406H70Z" fill="#FAE100"/>
<path d="M34.7783 13.2539C20.8701 13.2539 9.60107 22.1636 9.60107 33.1581C9.60107 40.3154 14.3779 46.586 21.5457 50.0907C21.0179 52.0542 19.6403 57.2111 19.3605 58.3142C19.0175 59.6813 19.862 59.6655 20.4162 59.3013C20.849 59.011 27.3148 54.6142 30.107 52.7193C31.6219 52.9463 33.1842 53.0624 34.7836 53.0624C48.6864 53.0624 59.9607 44.1527 59.9607 33.1581C59.9607 22.1636 48.6864 13.2539 34.7783 13.2539Z" fill="#381E1F"/>
<path d="M17.2176 29.4948H19.8092C19.8092 29.4948 19.825 36.6152 19.8092 38.2726C19.8145 39.4813 22.5064 39.4971 22.5011 38.2884L22.5116 29.5846C22.5116 29.5846 23.3773 29.5898 25.0927 29.5898C26.7026 29.5898 26.7026 27.0563 25.0927 27.0563C23.277 27.0563 17.2123 27.0088 17.2123 27.0088C15.6922 27.0088 15.6974 29.4948 17.2176 29.4948Z" fill="#FAE100"/>
<mask id="mask0_187_29" style="mask-type:luminance" maskUnits="userSpaceOnUse" x="16" y="27" width="11" height="13">
<path d="M17.2176 29.4948H19.8092C19.8092 29.4948 19.825 36.6152 19.8092 38.2726C19.8145 39.4813 22.5064 39.4971 22.5011 38.2884L22.5116 29.5846C22.5116 29.5846 23.3773 29.5898 25.0927 29.5898C26.7026 29.5898 26.7026 27.0563 25.0927 27.0563C23.277 27.0563 17.2123 27.0088 17.2123 27.0088C15.6922 27.0088 15.6974 29.4948 17.2176 29.4948Z" fill="white"/>
</mask>
<g mask="url(#mask0_187_29)">
<path d="M26.7078 27.0088H15.6921V39.4971H26.7078V27.0088Z" fill="#FAE100"/>
</g>
<path d="M29.6214 29.954L31.0624 34.4722H28.059L29.6214 29.954ZM28.001 27.8374C27.3623 29.2414 25.061 35.8762 24.2957 37.6338C23.7414 38.9059 26.1272 39.9404 26.6814 38.6736L27.1987 36.8579H31.9386C31.9386 36.8579 31.7749 36.9318 32.403 38.5945C32.915 39.9404 35.3747 39.0062 34.8627 37.6602C34.1343 35.7389 31.6166 28.8192 31.1574 27.8374C30.9462 27.3835 30.1862 27.0615 29.4525 27.0615C28.8508 27.0615 28.2543 27.2832 28.001 27.8374Z" fill="#FAE100"/>
<mask id="mask1_187_29" style="mask-type:luminance" maskUnits="userSpaceOnUse" x="24" y="27" width="11" height="13">
<path d="M29.6214 29.954L31.0624 34.4722H28.059L29.6214 29.954ZM28.001 27.8374C27.3623 29.2414 25.061 35.8762 24.2957 37.6338C23.7414 38.9059 26.1272 39.9404 26.6814 38.6736L27.1987 36.8579H31.9386C31.9386 36.8579 31.7749 36.9318 32.403 38.5945C32.915 39.9404 35.3747 39.0062 34.8627 37.6602C34.1343 35.7389 31.6166 28.8192 31.1574 27.8374C30.9462 27.3835 30.1862 27.0615 29.4525 27.0615C28.8508 27.0615 28.2543 27.2832 28.001 27.8374Z" fill="white"/>
</mask>
<g mask="url(#mask1_187_29)">
<path d="M35.3852 27.0615H23.7467V39.9457H35.3852V27.0615Z" fill="#FAE100"/>
</g>
<path d="M35.7811 28.2541C35.7864 30.5079 35.7917 37.7707 35.7917 37.7707C35.7917 37.7707 35.5858 39.217 36.8209 39.217C38.0613 39.217 40.806 39.2011 42.0253 39.2011C43.2445 39.2011 43.234 36.6095 42.02 36.6095C40.8007 36.6095 38.5786 36.599 38.5786 36.599C38.5786 36.599 38.5891 29.8798 38.5839 28.2488C38.5839 27.457 37.8819 27.0665 37.1799 27.0665C36.4778 27.0612 35.7758 27.457 35.7811 28.2541Z" fill="#FAE100"/>
<mask id="mask2_187_29" style="mask-type:luminance" maskUnits="userSpaceOnUse" x="35" y="27" width="8" height="13">
<path d="M35.7811 28.2541C35.7864 30.5079 35.7917 37.7707 35.7917 37.7707C35.7917 37.7707 35.5858 39.217 36.8209 39.217C38.0613 39.217 40.806 39.2011 42.0253 39.2011C43.2445 39.2011 43.234 36.6095 42.02 36.6095C40.8007 36.6095 38.5786 36.599 38.5786 36.599C38.5786 36.599 38.5891 29.8798 38.5839 28.2488C38.5839 27.457 37.8819 27.0665 37.1799 27.0665C36.4778 27.0612 35.7758 27.457 35.7811 28.2541Z" fill="white"/>
</mask>
<g mask="url(#mask2_187_29)">
<path d="M43.2445 27.0615H35.5858V39.212H43.2445V27.0615Z" fill="#FAE100"/>
</g>
<path d="M43.5666 27.8957C43.593 28.8828 43.5349 37.8241 43.5349 38.4839C43.5349 39.529 46.1951 39.529 46.1951 38.4839C46.1951 37.2699 46.1951 34.9686 46.1951 34.9686L46.9763 34.3352L50.3913 38.9959C51.0828 39.909 53.2574 38.2622 52.566 37.3491L48.9398 32.5723C48.9398 32.5723 51.4048 29.9068 52.3707 28.9461C52.9355 28.3813 51.1831 26.6184 50.6183 27.1832C50.0694 27.7268 46.211 31.5905 46.211 31.5905C46.211 31.5905 46.2479 29.1678 46.211 27.8271C46.1951 27.3204 45.5723 27.0723 44.9336 27.0723C44.2527 27.0671 43.5507 27.3468 43.5666 27.8957Z" fill="#FAE100"/>
<mask id="mask3_187_29" style="mask-type:luminance" maskUnits="userSpaceOnUse" x="43" y="27" width="10" height="13">
<path d="M43.5666 27.8957C43.593 28.8828 43.5349 37.8241 43.5349 38.4839C43.5349 39.529 46.1951 39.529 46.1951 38.4839C46.1951 37.2699 46.1951 34.9686 46.1951 34.9686L46.9763 34.3352L50.3913 38.9959C51.0828 39.909 53.2574 38.2622 52.566 37.3491L48.9398 32.5723C48.9398 32.5723 51.4048 29.9068 52.3707 28.9461C52.9355 28.3813 51.1831 26.6184 50.6183 27.1832C50.0694 27.7268 46.211 31.5905 46.211 31.5905C46.211 31.5905 46.2479 29.1678 46.211 27.8271C46.1951 27.3204 45.5723 27.0723 44.9336 27.0723C44.2527 27.0671 43.5507 27.3468 43.5666 27.8957Z" fill="white"/>
</mask>
<g mask="url(#mask3_187_29)">
<path d="M53.2574 26.6182H43.5349V39.9088H53.2574V26.6182Z" fill="#FAE100"/>
</g>
</g>
<defs>
<clipPath id="clip0_187_29">
<rect width="70" height="70.4012" fill="white"/>
</clipPath>
</defs>
</svg>
