<svg width="145" height="145" viewBox="0 0 145 145" fill="none" xmlns="http://www.w3.org/2000/svg">
<circle cx="72.5" cy="72.5" r="72.5" fill="#FF569D"/>
<g clip-path="url(#clip0_192_353)">
<path d="M78.1875 18.2589C77.8378 18.2244 77.5183 18.1294 77.2204 17.9653C76.9225 17.8012 76.6677 17.594 76.4562 17.3392L76.9743 16.8341C77.1427 17.0284 77.337 17.1924 77.5615 17.3263C77.786 17.4601 78.0235 17.5379 78.2696 17.5594C78.5718 17.5897 78.8093 17.5422 78.9863 17.4256C79.1633 17.309 79.2583 17.145 79.2799 16.9334C79.2929 16.778 79.2713 16.6484 79.2108 16.5491C79.1504 16.4498 79.064 16.3591 78.9475 16.2857C78.8309 16.2123 78.7013 16.1303 78.5502 16.0483L77.8767 15.6813C77.7169 15.5992 77.5658 15.4913 77.419 15.3661C77.2722 15.2409 77.1556 15.0854 77.065 14.9041C76.9786 14.7228 76.9441 14.5069 76.97 14.2608C76.9959 13.9931 77.0865 13.7642 77.2506 13.5656C77.4147 13.367 77.6263 13.2202 77.8896 13.1209C78.153 13.0216 78.4466 12.9871 78.7661 13.0173C79.064 13.0432 79.3404 13.1296 79.5951 13.2677C79.8498 13.4059 80.0614 13.5829 80.2341 13.7988L79.7808 14.2694C79.634 14.114 79.4742 13.9844 79.3015 13.8895C79.1288 13.7945 78.9302 13.734 78.7057 13.7124C78.4423 13.6865 78.2307 13.7254 78.071 13.829C77.9069 13.9326 77.8205 14.0837 77.799 14.278C77.786 14.4248 77.8119 14.5501 77.881 14.6494C77.9501 14.7487 78.0451 14.8393 78.166 14.9127C78.2868 14.9861 78.4121 15.0552 78.5373 15.1243L79.2022 15.487C79.3965 15.5906 79.5649 15.7072 79.7117 15.841C79.8542 15.9749 79.9621 16.1303 80.0355 16.3073C80.1089 16.4844 80.1305 16.7002 80.1089 16.9507C80.083 17.2227 79.988 17.4601 79.8282 17.6717C79.6642 17.8789 79.444 18.0387 79.1677 18.151C78.8827 18.2546 78.5589 18.2934 78.1875 18.2589Z" fill="white"/>
<path d="M82.9499 18.9152C82.639 18.8591 82.3541 18.7512 82.108 18.5871C81.8576 18.423 81.6503 18.2115 81.4862 17.9567C81.3222 17.6977 81.2099 17.3997 81.1538 17.0587C81.0977 16.7176 81.1063 16.3419 81.1754 15.9318C81.2488 15.5216 81.3697 15.1675 81.5424 14.8696C81.7151 14.5717 81.9266 14.3213 82.1684 14.1356C82.4102 13.9456 82.6822 13.8161 82.9801 13.747C83.2781 13.6779 83.5846 13.6693 83.9041 13.7254C84.2107 13.7816 84.474 13.8895 84.6942 14.0622C84.9101 14.2306 85.0828 14.4119 85.208 14.6062L84.6986 15.038C84.5906 14.8826 84.4611 14.7487 84.3186 14.6365C84.1718 14.5242 83.9991 14.4508 83.8005 14.4163C83.5112 14.3645 83.2435 14.399 82.9931 14.5113C82.7427 14.6235 82.5354 14.8135 82.3627 15.0725C82.19 15.3316 82.0691 15.6597 81.9957 16.0526C81.9266 16.4456 81.9266 16.7996 81.9914 17.1061C82.0605 17.417 82.1857 17.6674 82.38 17.8574C82.57 18.0517 82.8118 18.1726 83.1097 18.2244C83.3385 18.2633 83.5458 18.2503 83.7444 18.1856C83.9387 18.1208 84.1286 18.0172 84.3057 17.879L84.6468 18.4576C84.4006 18.6562 84.1373 18.7987 83.8609 18.8764C83.5803 18.9627 83.2737 18.9714 82.9499 18.9152Z" fill="white"/>
<path d="M85.4757 19.321L86.771 14.3989L88.3815 14.8221C88.7182 14.9127 89.0119 15.0379 89.2536 15.1977C89.4954 15.3618 89.6681 15.5647 89.7718 15.8108C89.8754 16.0569 89.8754 16.3591 89.7847 16.7175C89.694 17.0586 89.5429 17.322 89.327 17.5033C89.1112 17.6846 88.8564 17.7969 88.5628 17.8314C88.2649 17.8703 87.9497 17.8444 87.6129 17.758L86.7796 17.5378L86.2572 19.5196L85.4757 19.321ZM86.9351 16.9161L87.6777 17.1104C88.0361 17.2054 88.3253 17.2011 88.5542 17.1018C88.783 17.0025 88.9341 16.8038 89.0119 16.5102C89.0896 16.2123 89.0507 15.9792 88.891 15.8108C88.7312 15.6424 88.4765 15.5129 88.1181 15.4179L87.3755 15.2236L86.9351 16.9161ZM88.1613 20.0248L87.5179 17.5119L88.2088 17.214L89.0378 20.2536L88.1613 20.0248Z" fill="white"/>
<path d="M91.7018 21.2941C91.2959 21.1473 90.9721 20.9142 90.7303 20.5947C90.4885 20.2752 90.3504 19.8996 90.3072 19.4592C90.264 19.0188 90.3374 18.5438 90.5231 18.0343C90.7087 17.5205 90.9591 17.1104 91.27 16.8081C91.5809 16.5059 91.9263 16.3159 92.3149 16.2339C92.7035 16.1518 93.0964 16.1821 93.5022 16.3332C93.9124 16.4843 94.2406 16.7131 94.478 17.024C94.7198 17.3349 94.8623 17.7062 94.9055 18.1336C94.9486 18.5654 94.8796 19.036 94.6896 19.5498C94.5039 20.0593 94.2535 20.4695 93.9426 20.7803C93.6274 21.0912 93.2777 21.2898 92.8934 21.3805C92.5092 21.4712 92.112 21.4409 91.7018 21.2941ZM91.9393 20.6292C92.2026 20.7242 92.4617 20.7329 92.7121 20.6551C92.9625 20.5731 93.1957 20.4177 93.4029 20.1802C93.6102 19.9427 93.7829 19.6405 93.9167 19.2692C94.0506 18.8979 94.1153 18.5568 94.1067 18.2459C94.0981 17.935 94.0203 17.6717 93.8736 17.4558C93.7268 17.2399 93.5238 17.0845 93.2604 16.9851C92.9971 16.8902 92.738 16.8772 92.4876 16.9506C92.2372 17.024 92.0127 17.1751 91.8054 17.4083C91.5982 17.6414 91.4298 17.9437 91.2959 18.315C91.1621 18.6863 91.0973 19.0317 91.1016 19.3426C91.1059 19.6578 91.1837 19.9255 91.3218 20.1457C91.4729 20.3745 91.6759 20.5342 91.9393 20.6292Z" fill="white"/>
<path d="M94.8536 22.4297L96.9909 17.8098L97.7162 18.1466L95.8683 22.149L97.8242 23.0514L97.5392 23.6732L94.8536 22.4297Z" fill="white"/>
<path d="M98.4114 24.1308L100.877 19.675L101.576 20.0636L99.4433 23.9193L101.33 24.9642L100.998 25.5643L98.4114 24.1308Z" fill="white"/>
<path d="M106.274 29.2818C106.157 29.1912 106.092 29.0746 106.075 28.9235C106.058 28.7723 106.101 28.6342 106.196 28.509C106.295 28.3794 106.421 28.3017 106.567 28.2844C106.714 28.2672 106.844 28.3017 106.96 28.3924C107.081 28.4831 107.15 28.604 107.172 28.7508C107.189 28.8976 107.15 29.0357 107.051 29.1652C106.952 29.2948 106.831 29.3682 106.68 29.3898C106.528 29.4114 106.395 29.3725 106.274 29.2818Z" fill="white"/>
<path d="M113.635 36.0648C113.402 35.8057 113.229 35.5164 113.117 35.1969C113.009 34.8774 112.962 34.5493 112.979 34.2211L113.704 34.1995C113.696 34.4586 113.73 34.709 113.808 34.9595C113.886 35.2099 114.007 35.4258 114.175 35.6114C114.378 35.8359 114.585 35.9655 114.792 35.9957C115 36.0259 115.185 35.9741 115.341 35.8316C115.457 35.728 115.526 35.6157 115.552 35.5035C115.574 35.3869 115.57 35.266 115.535 35.1322C115.501 34.9983 115.457 34.8515 115.406 34.6874L115.159 33.9621C115.099 33.7937 115.056 33.6123 115.034 33.4181C115.013 33.2238 115.03 33.0295 115.086 32.8395C115.142 32.6452 115.267 32.4682 115.449 32.2998C115.647 32.1184 115.872 32.0105 116.127 31.976C116.381 31.9414 116.636 31.976 116.895 32.0796C117.154 32.1875 117.396 32.3559 117.612 32.5977C117.815 32.8179 117.962 33.0683 118.052 33.3447C118.147 33.621 118.182 33.893 118.165 34.1693L117.513 34.2082C117.513 33.9923 117.478 33.7894 117.418 33.6037C117.357 33.4137 117.249 33.2367 117.098 33.0683C116.921 32.874 116.74 32.7575 116.55 32.7272C116.36 32.6927 116.191 32.7445 116.045 32.874C115.937 32.9733 115.872 33.0813 115.855 33.2065C115.837 33.3274 115.846 33.4569 115.885 33.5908C115.924 33.7246 115.967 33.8628 116.014 33.9966L116.26 34.7133C116.334 34.9206 116.381 35.1192 116.394 35.3178C116.412 35.5164 116.386 35.7021 116.317 35.8834C116.247 36.0648 116.122 36.2375 115.932 36.4059C115.729 36.5872 115.501 36.6995 115.237 36.747C114.974 36.7944 114.706 36.7599 114.425 36.652C114.145 36.544 113.886 36.3411 113.635 36.0648Z" fill="white"/>
<path d="M116.705 39.7737C116.511 39.5232 116.377 39.2512 116.304 38.9619C116.23 38.6727 116.217 38.3791 116.273 38.0768C116.325 37.7746 116.446 37.481 116.632 37.1917C116.817 36.9024 117.081 36.6304 117.413 36.3757C117.741 36.1253 118.074 35.9439 118.406 35.8403C118.739 35.7367 119.058 35.6978 119.365 35.7237C119.671 35.7496 119.961 35.836 120.224 35.9871C120.487 36.1382 120.721 36.3411 120.919 36.5959C121.109 36.8463 121.23 37.1054 121.273 37.3774C121.321 37.6494 121.325 37.8998 121.282 38.1286L120.617 38.0984C120.643 37.9128 120.639 37.7271 120.604 37.5458C120.574 37.3644 120.496 37.1917 120.371 37.032C120.19 36.7988 119.969 36.6391 119.71 36.557C119.451 36.475 119.166 36.4707 118.864 36.5441C118.562 36.6175 118.251 36.7772 117.931 37.019C117.612 37.2651 117.374 37.5198 117.215 37.7962C117.055 38.0725 116.982 38.3402 116.99 38.6122C116.999 38.8842 117.098 39.1346 117.279 39.3721C117.418 39.5535 117.586 39.6873 117.776 39.7737C117.966 39.8557 118.173 39.9075 118.398 39.9291L118.26 40.5854C117.944 40.5681 117.655 40.4947 117.396 40.3652C117.137 40.2356 116.908 40.037 116.705 39.7737Z" fill="white"/>
<path d="M118.294 41.7727L122.573 39.0181L123.475 40.417C123.665 40.7106 123.795 40.9999 123.864 41.2848C123.933 41.5698 123.924 41.8375 123.829 42.0879C123.739 42.3383 123.536 42.5628 123.225 42.7658C122.927 42.9601 122.638 43.0464 122.357 43.0378C122.076 43.0248 121.813 42.9342 121.567 42.7658C121.321 42.5974 121.105 42.3599 120.915 42.0663L120.449 41.341L118.722 42.4506L118.294 41.7727ZM119.797 44.1086L121.018 41.8202L121.731 42.0706L120.289 44.8728L119.797 44.1086ZM120.993 40.9869L121.407 41.6302C121.606 41.9411 121.826 42.1354 122.059 42.2174C122.297 42.2995 122.543 42.2563 122.797 42.0922C123.056 41.9238 123.186 41.7252 123.182 41.4964C123.177 41.2676 123.078 40.9955 122.875 40.6847L122.461 40.0413L120.993 40.9869Z" fill="white"/>
<path d="M121.554 47.4245C121.355 47.0402 121.269 46.6517 121.308 46.2544C121.347 45.8572 121.498 45.4859 121.761 45.1318C122.025 44.7778 122.4 44.4799 122.879 44.2251C123.363 43.9704 123.825 43.8366 124.257 43.8236C124.689 43.8106 125.077 43.9013 125.414 44.0999C125.755 44.2985 126.027 44.5878 126.226 44.9721C126.429 45.3607 126.515 45.7493 126.48 46.1422C126.45 46.5351 126.303 46.9021 126.049 47.2518C125.789 47.6015 125.418 47.8994 124.935 48.1542C124.451 48.4046 123.993 48.5428 123.553 48.56C123.113 48.5773 122.72 48.491 122.374 48.2967C122.029 48.1024 121.757 47.8131 121.554 47.4245ZM122.18 47.1007C122.309 47.3511 122.495 47.5281 122.737 47.6404C122.979 47.7527 123.255 47.7915 123.566 47.757C123.877 47.7224 124.209 47.6145 124.559 47.4331C124.909 47.2475 125.185 47.0402 125.388 46.8028C125.591 46.5653 125.712 46.3192 125.751 46.0645C125.79 45.8054 125.746 45.555 125.612 45.3045C125.483 45.0541 125.302 44.8728 125.068 44.7605C124.835 44.6483 124.563 44.6051 124.257 44.6396C123.95 44.6742 123.622 44.7821 123.268 44.9635C122.918 45.1448 122.638 45.3564 122.43 45.5938C122.223 45.8313 122.098 46.0774 122.05 46.3365C122.007 46.5955 122.046 46.8503 122.18 47.1007Z" fill="white"/>
<path d="M123.121 50.4037L127.814 48.4348L128.125 49.1731L124.062 50.8786L124.896 52.8647L124.265 53.1281L123.121 50.4037Z" fill="white"/>
<path d="M124.598 54.0521L129.421 52.4243L129.675 53.1842L125.5 54.5918L126.187 56.634L125.539 56.8542L124.598 54.0521Z" fill="white"/>
<path d="M127.193 64.8333C127.171 64.6865 127.206 64.5569 127.301 64.436C127.391 64.3195 127.517 64.2461 127.676 64.2245C127.84 64.2029 127.983 64.2331 128.099 64.3195C128.216 64.4058 128.285 64.5224 128.307 64.6692C128.328 64.8203 128.294 64.9542 128.207 65.0707C128.121 65.1873 127.996 65.2607 127.832 65.2823C127.672 65.3039 127.529 65.2737 127.409 65.1873C127.288 65.1053 127.214 64.9844 127.193 64.8333Z" fill="white"/>
<path d="M127.728 74.8329C127.741 74.4831 127.819 74.155 127.966 73.8484C128.112 73.5419 128.307 73.2785 128.548 73.0497L129.084 73.5376C128.898 73.7146 128.743 73.9218 128.626 74.155C128.505 74.3881 128.445 74.6299 128.432 74.876C128.419 75.1783 128.479 75.4157 128.605 75.5841C128.734 75.7525 128.903 75.8389 129.114 75.8475C129.27 75.8518 129.399 75.8216 129.494 75.7568C129.589 75.6921 129.675 75.5971 129.744 75.4805C129.814 75.3596 129.887 75.2258 129.96 75.0703L130.288 74.3752C130.362 74.2111 130.461 74.0514 130.578 73.9003C130.694 73.7448 130.845 73.6196 131.018 73.5203C131.191 73.421 131.407 73.3778 131.657 73.3865C131.925 73.3951 132.162 73.4771 132.365 73.6282C132.573 73.7794 132.732 73.9823 132.845 74.2413C132.957 74.5004 133.009 74.7897 132.996 75.1092C132.983 75.4071 132.918 75.6878 132.793 75.9511C132.668 76.2145 132.503 76.4347 132.301 76.616L131.804 76.1886C131.951 76.0332 132.072 75.8648 132.158 75.6878C132.244 75.5107 132.292 75.3078 132.301 75.079C132.309 74.8156 132.257 74.6083 132.149 74.4529C132.037 74.2975 131.882 74.2154 131.683 74.2068C131.536 74.2025 131.415 74.237 131.316 74.3104C131.217 74.3838 131.135 74.4831 131.07 74.6083C131.001 74.7336 130.94 74.8588 130.88 74.9926L130.556 75.6791C130.466 75.8777 130.358 76.0548 130.232 76.2059C130.107 76.357 129.956 76.4736 129.783 76.5556C129.611 76.6376 129.395 76.6722 129.144 76.6635C128.872 76.6549 128.626 76.5729 128.41 76.4218C128.194 76.2706 128.022 76.0591 127.892 75.7871C127.771 75.528 127.715 75.2042 127.728 74.8329Z" fill="white"/>
<path d="M127.344 79.6168C127.378 79.3016 127.473 79.0123 127.62 78.7576C127.767 78.4985 127.966 78.2783 128.216 78.1013C128.462 77.92 128.756 77.7947 129.092 77.717C129.429 77.6393 129.805 77.6264 130.219 77.6738C130.63 77.7213 130.992 77.825 131.303 77.9804C131.614 78.1358 131.869 78.3301 132.072 78.5633C132.275 78.7964 132.417 79.0598 132.503 79.3491C132.59 79.6384 132.616 79.9492 132.577 80.2688C132.542 80.5796 132.443 80.8473 132.287 81.0761C132.132 81.305 131.959 81.4863 131.774 81.6202L131.316 81.1366C131.463 81.02 131.588 80.8862 131.696 80.7307C131.8 80.5796 131.864 80.4026 131.886 80.1997C131.92 79.9061 131.873 79.6427 131.743 79.4009C131.614 79.1591 131.415 78.9605 131.148 78.8008C130.88 78.641 130.547 78.5374 130.146 78.4942C129.744 78.451 129.395 78.4683 129.092 78.5503C128.79 78.6324 128.544 78.7792 128.363 78.9821C128.181 79.185 128.073 79.4311 128.039 79.729C128.013 79.9579 128.039 80.1694 128.117 80.3594C128.194 80.5494 128.307 80.7307 128.453 80.9034L127.896 81.2748C127.681 81.0416 127.529 80.7869 127.43 80.5149C127.331 80.2472 127.305 79.9492 127.344 79.6168Z" fill="white"/>
<path d="M126.532 84.8929L129.002 84.1028L129.339 84.7763L126.351 85.778L126.532 84.8929ZM127.085 82.1685L132.076 83.1788L131.744 84.8109C131.674 85.1519 131.567 85.4499 131.42 85.7046C131.273 85.955 131.079 86.1407 130.837 86.2573C130.595 86.3738 130.293 86.3954 129.93 86.322C129.585 86.2529 129.313 86.1148 129.118 85.9118C128.924 85.7089 128.799 85.4585 128.743 85.1649C128.687 84.8713 128.695 84.5518 128.764 84.2107L128.937 83.3644L126.925 82.9586L127.085 82.1685ZM129.567 83.4897L129.416 84.2409C129.343 84.6036 129.365 84.8929 129.477 85.1174C129.589 85.3419 129.796 85.4801 130.09 85.5405C130.392 85.601 130.621 85.5492 130.781 85.3808C130.94 85.2124 131.057 84.949 131.126 84.5863L131.277 83.8351L129.567 83.4897Z" fill="white"/>
<path d="M125.479 88.4939C125.604 88.0794 125.815 87.7426 126.118 87.4835C126.42 87.2245 126.791 87.0647 127.227 86.9957C127.663 86.9266 128.143 86.9741 128.661 87.1295C129.188 87.2849 129.606 87.5094 129.926 87.803C130.245 88.0966 130.457 88.4334 130.561 88.8091C130.664 89.1847 130.656 89.5862 130.53 90.0007C130.405 90.4195 130.194 90.7563 129.9 91.0154C129.606 91.2744 129.244 91.4385 128.816 91.5076C128.389 91.5767 127.914 91.5335 127.387 91.378C126.865 91.2226 126.442 90.9981 126.113 90.7002C125.785 90.4066 125.565 90.0698 125.453 89.6899C125.345 89.3142 125.353 88.9127 125.479 88.4939ZM126.152 88.6968C126.07 88.9645 126.079 89.2236 126.174 89.4697C126.269 89.7158 126.437 89.936 126.688 90.1303C126.934 90.3245 127.249 90.48 127.629 90.5922C128.009 90.7045 128.354 90.7477 128.661 90.7218C128.967 90.6959 129.226 90.6009 129.434 90.4454C129.641 90.29 129.788 90.0741 129.865 89.8064C129.947 89.5387 129.943 89.2797 129.852 89.0336C129.766 88.7875 129.598 88.5716 129.356 88.3816C129.114 88.1916 128.799 88.0405 128.423 87.9239C128.048 87.8074 127.698 87.7642 127.387 87.7901C127.076 87.816 126.813 87.9024 126.597 88.0578C126.381 88.2132 126.234 88.4248 126.152 88.6968Z" fill="white"/>
<path d="M124.524 91.7104L129.261 93.5757L128.967 94.3226L124.865 92.7078L124.075 94.7155L123.441 94.4651L124.524 91.7104Z" fill="white"/>
<path d="M123.031 95.3589L127.62 97.5609L127.275 98.2819L123.303 96.3735L122.37 98.3165L121.753 98.0186L123.031 95.3589Z" fill="white"/>
<path d="M117.366 104.897C117.452 104.776 117.569 104.707 117.72 104.685C117.867 104.663 118.009 104.702 118.139 104.797C118.273 104.897 118.35 105.017 118.376 105.16C118.402 105.302 118.367 105.436 118.281 105.557C118.19 105.682 118.074 105.751 117.931 105.777C117.789 105.803 117.646 105.764 117.513 105.665C117.383 105.57 117.305 105.449 117.275 105.302C117.245 105.151 117.275 105.017 117.366 104.897Z" fill="white"/>
<path d="M110.777 112.431C111.032 112.189 111.317 112.008 111.632 111.891C111.947 111.775 112.275 111.718 112.608 111.727L112.651 112.452C112.392 112.448 112.141 112.491 111.895 112.573C111.649 112.655 111.433 112.785 111.252 112.958C111.032 113.169 110.911 113.376 110.881 113.588C110.85 113.8 110.915 113.981 111.062 114.132C111.17 114.244 111.282 114.313 111.399 114.335C111.515 114.356 111.636 114.348 111.77 114.309C111.904 114.27 112.051 114.223 112.211 114.167L112.932 113.899C113.1 113.834 113.281 113.787 113.471 113.761C113.666 113.735 113.86 113.743 114.05 113.8C114.244 113.851 114.425 113.968 114.598 114.149C114.784 114.344 114.896 114.564 114.939 114.818C114.982 115.069 114.952 115.328 114.853 115.591C114.754 115.855 114.59 116.097 114.356 116.321C114.14 116.528 113.894 116.679 113.622 116.783C113.35 116.882 113.078 116.93 112.802 116.917L112.746 116.265C112.962 116.256 113.16 116.217 113.35 116.153C113.536 116.084 113.713 115.976 113.877 115.82C114.067 115.639 114.175 115.453 114.205 115.263C114.235 115.073 114.179 114.905 114.041 114.762C113.938 114.654 113.83 114.594 113.704 114.581C113.584 114.568 113.454 114.581 113.32 114.624C113.186 114.667 113.052 114.715 112.914 114.767L112.206 115.034C112.003 115.112 111.805 115.164 111.606 115.185C111.412 115.207 111.222 115.185 111.04 115.125C110.859 115.065 110.682 114.939 110.505 114.754C110.319 114.555 110.198 114.331 110.147 114.067C110.095 113.808 110.121 113.536 110.22 113.251C110.319 112.966 110.505 112.69 110.777 112.431Z" fill="white"/>
<path d="M107.159 115.596C107.405 115.397 107.673 115.255 107.958 115.173C108.247 115.091 108.54 115.073 108.843 115.116C109.145 115.16 109.443 115.272 109.736 115.453C110.03 115.635 110.311 115.885 110.574 116.209C110.833 116.533 111.023 116.856 111.135 117.185C111.248 117.513 111.295 117.832 111.278 118.139C111.261 118.445 111.179 118.735 111.036 119.007C110.894 119.279 110.695 119.512 110.445 119.715C110.203 119.913 109.944 120.039 109.672 120.09C109.4 120.142 109.149 120.155 108.92 120.121L108.929 119.456C109.115 119.473 109.3 119.464 109.482 119.43C109.663 119.391 109.831 119.309 109.987 119.184C110.216 118.998 110.367 118.773 110.44 118.51C110.514 118.247 110.514 117.966 110.432 117.664C110.35 117.362 110.181 117.055 109.931 116.744C109.68 116.433 109.413 116.2 109.136 116.049C108.86 115.898 108.584 115.829 108.316 115.85C108.044 115.868 107.794 115.971 107.56 116.161C107.383 116.308 107.254 116.477 107.172 116.666C107.09 116.856 107.047 117.068 107.034 117.293L106.373 117.172C106.382 116.856 106.451 116.567 106.572 116.304C106.693 116.04 106.9 115.803 107.159 115.596Z" fill="white"/>
<path d="M102.902 118.804L105.225 119.965L104.996 120.682L102.155 119.313L102.902 118.804ZM105.194 117.236L108.066 121.442L106.688 122.379C106.399 122.577 106.114 122.715 105.833 122.793C105.553 122.871 105.285 122.867 105.03 122.78C104.776 122.694 104.547 122.5 104.34 122.193C104.141 121.899 104.042 121.614 104.046 121.334C104.05 121.053 104.132 120.79 104.296 120.539C104.46 120.289 104.689 120.069 104.979 119.87L105.691 119.382L104.534 117.69L105.194 117.236ZM106.054 119.913L105.419 120.345C105.112 120.552 104.927 120.777 104.849 121.014C104.771 121.252 104.823 121.498 104.991 121.748C105.164 122.003 105.367 122.124 105.6 122.115C105.829 122.107 106.097 121.999 106.403 121.791L107.038 121.36L106.054 119.913Z" fill="white"/>
<path d="M99.629 120.652C100.009 120.44 100.393 120.349 100.79 120.375C101.188 120.401 101.563 120.544 101.926 120.798C102.284 121.053 102.595 121.42 102.863 121.895C103.131 122.374 103.277 122.828 103.299 123.259C103.325 123.691 103.243 124.08 103.053 124.425C102.863 124.771 102.578 125.047 102.202 125.259C101.822 125.47 101.434 125.569 101.041 125.548C100.648 125.526 100.277 125.392 99.9226 125.142C99.5685 124.896 99.2577 124.529 98.99 124.054C98.7266 123.579 98.5798 123.121 98.5496 122.681C98.5193 122.24 98.5971 121.848 98.7827 121.494C98.964 121.144 99.2447 120.863 99.629 120.652ZM99.9701 121.265C99.724 121.403 99.5513 121.593 99.4433 121.835C99.3397 122.076 99.3095 122.353 99.3483 122.668C99.3915 122.979 99.5081 123.307 99.7024 123.652C99.8967 123.998 100.113 124.27 100.354 124.464C100.596 124.658 100.842 124.775 101.101 124.805C101.36 124.84 101.611 124.788 101.857 124.65C102.103 124.512 102.28 124.326 102.388 124.088C102.496 123.851 102.53 123.579 102.487 123.272C102.444 122.966 102.327 122.642 102.133 122.292C101.939 121.947 101.723 121.675 101.481 121.472C101.239 121.273 100.989 121.152 100.726 121.114C100.471 121.079 100.216 121.127 99.9701 121.265Z" fill="white"/>
<path d="M96.7015 122.288L98.7956 126.929L98.0659 127.258L96.2525 123.242L94.288 124.127L94.0073 123.506L96.7015 122.288Z" fill="white"/>
<path d="M93.0791 123.868L94.8321 128.648L94.0808 128.924L92.561 124.788L90.5361 125.531L90.2986 124.887L93.0791 123.868Z" fill="white"/>
<path d="M82.3886 126.748C82.5354 126.722 82.6649 126.757 82.7858 126.843C82.9067 126.929 82.9801 127.055 83.006 127.214C83.0362 127.378 83.006 127.521 82.9197 127.637C82.8333 127.754 82.721 127.832 82.5742 127.853C82.4231 127.879 82.2893 127.849 82.1684 127.767C82.0475 127.681 81.9741 127.56 81.9482 127.396C81.9223 127.236 81.9482 127.093 82.0345 126.973C82.1209 126.847 82.2375 126.774 82.3886 126.748Z" fill="white"/>
<path d="M72.4149 127.547C72.7646 127.551 73.0927 127.624 73.4036 127.763C73.7102 127.901 73.9822 128.091 74.2153 128.328L73.7361 128.872C73.5547 128.691 73.3475 128.54 73.11 128.428C72.8769 128.315 72.6308 128.255 72.3847 128.251C72.0824 128.246 71.845 128.307 71.6809 128.441C71.5168 128.57 71.4305 128.743 71.4261 128.954C71.4218 129.11 71.4564 129.235 71.5255 129.334C71.5945 129.429 71.6852 129.511 71.8061 129.576C71.927 129.641 72.0652 129.71 72.2206 129.783L72.92 130.099C73.0841 130.172 73.2439 130.263 73.4036 130.379C73.5591 130.496 73.6886 130.638 73.7922 130.815C73.8915 130.988 73.939 131.2 73.939 131.45C73.9347 131.718 73.8613 131.955 73.7145 132.167C73.5677 132.374 73.3691 132.538 73.1143 132.659C72.8596 132.775 72.5703 132.832 72.2465 132.827C71.9486 132.823 71.6636 132.758 71.4002 132.642C71.1369 132.525 70.908 132.361 70.7224 132.162L71.1369 131.657C71.2966 131.804 71.465 131.916 71.6463 132.003C71.8277 132.085 72.0306 132.128 72.2551 132.132C72.5185 132.136 72.7258 132.08 72.8812 131.968C73.0366 131.851 73.1143 131.696 73.1143 131.497C73.1187 131.351 73.0798 131.23 73.0021 131.135C72.9244 131.04 72.8251 130.958 72.6998 130.893C72.5746 130.828 72.4451 130.768 72.3113 130.712L71.6204 130.405C71.4175 130.319 71.2405 130.215 71.085 130.094C70.9296 129.973 70.8087 129.826 70.7267 129.654C70.6403 129.481 70.6015 129.27 70.6058 129.015C70.6101 128.743 70.6878 128.497 70.8303 128.276C70.9771 128.056 71.1844 127.879 71.4521 127.745C71.7197 127.603 72.0392 127.538 72.4149 127.547Z" fill="white"/>
<path d="M67.6051 127.288C67.9203 127.318 68.2095 127.4 68.4729 127.543C68.7363 127.685 68.9608 127.875 69.1465 128.121C69.3321 128.363 69.4703 128.652 69.5523 128.985C69.6387 129.317 69.6603 129.693 69.6257 130.112C69.5869 130.526 69.4962 130.889 69.3451 131.204C69.1983 131.519 69.0083 131.782 68.7838 131.99C68.5549 132.197 68.3002 132.348 68.0066 132.443C67.7173 132.538 67.4108 132.568 67.0913 132.542C66.7804 132.512 66.5084 132.426 66.2752 132.275C66.0421 132.124 65.8564 131.955 65.7183 131.774L66.1889 131.303C66.3098 131.45 66.4479 131.571 66.6034 131.67C66.7588 131.769 66.9358 131.83 67.1388 131.847C67.4324 131.873 67.6957 131.817 67.9332 131.683C68.1707 131.549 68.365 131.342 68.5161 131.07C68.6672 130.798 68.7622 130.461 68.7967 130.064C68.8313 129.667 68.8054 129.313 68.7104 129.011C68.6197 128.708 68.4686 128.471 68.2613 128.294C68.0541 128.117 67.8037 128.017 67.5058 127.992C67.2769 127.97 67.0654 128 66.8754 128.082C66.6854 128.164 66.5084 128.281 66.34 128.432L65.9514 127.884C66.1802 127.663 66.4307 127.504 66.6984 127.4C66.9747 127.296 67.2726 127.258 67.6051 127.288Z" fill="white"/>
<path d="M65.049 127.098L64.1726 132.115L62.5319 131.83C62.1864 131.77 61.8885 131.67 61.6295 131.528C61.3747 131.385 61.1848 131.195 61.0639 130.958C60.943 130.72 60.9127 130.418 60.9775 130.055C61.038 129.706 61.1675 129.434 61.3661 129.231C61.5647 129.028 61.8108 128.903 62.1001 128.838C62.3937 128.773 62.7089 128.773 63.0543 128.834L63.9049 128.98L64.2589 126.96L65.049 127.098ZM62.3117 126.619L63.1665 129.067L62.5016 129.421L61.4222 126.463L62.3117 126.619ZM63.7926 129.615L63.037 129.481C62.6743 129.416 62.3851 129.447 62.1649 129.563C61.9447 129.68 61.8108 129.891 61.759 130.189C61.7072 130.491 61.7633 130.72 61.936 130.876C62.1087 131.031 62.3764 131.139 62.7391 131.2L63.4947 131.333L63.7926 129.615Z" fill="white"/>
<path d="M58.6848 125.66C59.1036 125.772 59.4447 125.975 59.7124 126.273C59.9801 126.571 60.1528 126.934 60.2305 127.37C60.3082 127.806 60.278 128.285 60.1355 128.808C59.993 129.339 59.7771 129.766 59.4965 130.09C59.2159 130.414 58.8834 130.638 58.5078 130.755C58.1321 130.871 57.7349 130.871 57.3161 130.759C56.893 130.647 56.5476 130.444 56.2842 130.155C56.0165 129.865 55.8438 129.507 55.7661 129.084C55.684 128.661 55.7143 128.182 55.8611 127.655C56.0035 127.132 56.2151 126.701 56.5044 126.364C56.7893 126.027 57.1218 125.798 57.4974 125.677C57.8644 125.552 58.266 125.548 58.6848 125.66ZM58.5034 126.342C58.2314 126.269 57.9767 126.282 57.7306 126.385C57.4845 126.485 57.2686 126.662 57.0829 126.916C56.8973 127.167 56.7505 127.486 56.6469 127.871C56.5432 128.251 56.5087 128.596 56.5476 128.907C56.5821 129.213 56.6814 129.473 56.8455 129.675C57.0095 129.878 57.2254 130.017 57.4931 130.09C57.7651 130.163 58.0199 130.15 58.266 130.06C58.5078 129.965 58.7236 129.792 58.905 129.546C59.0863 129.3 59.2331 128.98 59.3367 128.6C59.4404 128.22 59.4749 127.871 59.4447 127.56C59.4101 127.249 59.3152 126.986 59.1554 126.778C58.9913 126.554 58.7755 126.416 58.5034 126.342Z" fill="white"/>
<path d="M55.4423 124.792L53.7066 129.576L52.9554 129.304L54.4622 125.164L52.4373 124.425L52.6704 123.782L55.4423 124.792Z" fill="white"/>
<path d="M51.755 123.398L49.6739 128.043L48.9443 127.715L50.7447 123.691L48.7759 122.81L49.0565 122.184L51.755 123.398Z" fill="white"/>
<path d="M42.0792 117.992C42.2001 118.074 42.2735 118.191 42.2994 118.337C42.3253 118.484 42.2907 118.627 42.2001 118.76C42.1051 118.899 41.9885 118.981 41.8417 119.007C41.6992 119.032 41.5654 119.007 41.4445 118.92C41.3193 118.834 41.2416 118.722 41.2157 118.575C41.1897 118.432 41.22 118.29 41.315 118.152C41.4056 118.018 41.5265 117.936 41.6733 117.906C41.8158 117.88 41.954 117.906 42.0792 117.992Z" fill="white"/>
<path d="M35.5855 112.776C35.8403 113.014 36.0346 113.29 36.1727 113.601C36.3066 113.912 36.38 114.231 36.3929 114.564L35.6719 114.646C35.6589 114.387 35.6071 114.141 35.5078 113.895C35.4085 113.653 35.2703 113.445 35.089 113.277C34.8688 113.07 34.6529 112.958 34.4414 112.945C34.2298 112.932 34.0528 113.001 33.9103 113.156C33.8023 113.268 33.7419 113.385 33.7289 113.502C33.716 113.618 33.7289 113.739 33.7764 113.873C33.8196 114.002 33.8801 114.149 33.9448 114.305L34.2514 115.008C34.3248 115.173 34.3809 115.35 34.4198 115.54C34.4586 115.73 34.4586 115.924 34.4154 116.122C34.3723 116.321 34.2686 116.507 34.0959 116.692C33.9146 116.887 33.6987 117.012 33.4483 117.072C33.1979 117.128 32.9388 117.115 32.6711 117.033C32.4034 116.951 32.1487 116.796 31.9155 116.576C31.6953 116.373 31.5313 116.135 31.4147 115.868C31.2981 115.6 31.2377 115.332 31.2377 115.056L31.8853 114.961C31.9069 115.177 31.9544 115.375 32.0321 115.557C32.1098 115.738 32.2307 115.907 32.3948 116.062C32.5848 116.243 32.7791 116.338 32.969 116.36C33.159 116.377 33.3231 116.312 33.4569 116.17C33.5562 116.062 33.6124 115.945 33.621 115.824C33.6296 115.704 33.6081 115.574 33.5562 115.445C33.5044 115.315 33.4526 115.181 33.3922 115.047L33.0856 114.352C32.9949 114.154 32.9302 113.955 32.9 113.761C32.8654 113.566 32.8784 113.376 32.9302 113.191C32.982 113.005 33.0943 112.824 33.267 112.638C33.4526 112.439 33.6728 112.306 33.9319 112.241C34.1909 112.176 34.4629 112.185 34.7479 112.267C35.0329 112.353 35.3135 112.521 35.5855 112.776Z" fill="white"/>
<path d="M32.222 109.348C32.4379 109.581 32.5933 109.84 32.6883 110.121C32.7833 110.401 32.8222 110.695 32.7962 111.002C32.7703 111.308 32.6754 111.61 32.5113 111.917C32.3472 112.219 32.1141 112.513 31.8032 112.798C31.4966 113.078 31.1815 113.281 30.8619 113.415C30.5381 113.545 30.2229 113.614 29.9164 113.614C29.6098 113.614 29.3162 113.549 29.0356 113.424C28.7593 113.299 28.5088 113.113 28.293 112.875C28.0814 112.642 27.9432 112.396 27.8741 112.129C27.8051 111.861 27.7792 111.61 27.8007 111.382L28.4657 111.356C28.457 111.546 28.4743 111.727 28.5218 111.904C28.5693 112.081 28.66 112.245 28.7981 112.396C28.9967 112.612 29.2299 112.755 29.4933 112.811C29.761 112.871 30.0416 112.85 30.3352 112.75C30.6288 112.651 30.9267 112.465 31.2246 112.198C31.5225 111.93 31.7384 111.649 31.8723 111.364C32.0061 111.079 32.0579 110.803 32.0277 110.531C31.9975 110.259 31.8766 110.017 31.6737 109.797C31.5182 109.629 31.3455 109.508 31.1469 109.439C30.9526 109.37 30.7411 109.335 30.5165 109.335L30.6029 108.67C30.9181 108.661 31.2117 108.713 31.4794 108.817C31.7514 108.925 31.9975 109.102 32.222 109.348Z" fill="white"/>
<path d="M30.469 107.479L26.4364 110.583L25.4217 109.262C25.2102 108.985 25.0547 108.709 24.9597 108.433C24.8648 108.156 24.8561 107.889 24.9252 107.63C24.9943 107.371 25.1799 107.129 25.4692 106.904C25.7499 106.688 26.0305 106.572 26.3112 106.563C26.5918 106.55 26.8595 106.619 27.1186 106.77C27.3776 106.922 27.6108 107.133 27.8267 107.414L28.3534 108.096L29.9812 106.844L30.469 107.479ZM27.8439 108.489L27.3776 107.88C27.1531 107.586 26.92 107.414 26.6782 107.349C26.4364 107.289 26.1946 107.349 25.9528 107.535C25.7067 107.725 25.5988 107.932 25.6203 108.161C25.6419 108.39 25.7671 108.653 25.9917 108.942L26.458 109.551L27.8439 108.489ZM28.7722 105.281L27.7489 107.664L27.0193 107.474L28.2196 104.56L28.7722 105.281Z" fill="white"/>
<path d="M26.7429 102.116C26.9761 102.483 27.0884 102.863 27.084 103.26C27.0797 103.657 26.9631 104.042 26.7257 104.417C26.4925 104.789 26.1428 105.121 25.6851 105.415C25.2231 105.708 24.7784 105.881 24.3467 105.928C23.9149 105.98 23.522 105.92 23.1679 105.747C22.8096 105.579 22.516 105.311 22.2872 104.944C22.054 104.573 21.9331 104.193 21.9331 103.8C21.9331 103.407 22.0454 103.027 22.2742 102.66C22.503 102.293 22.8484 101.961 23.3104 101.667C23.7681 101.373 24.2171 101.201 24.6532 101.149C25.0893 101.097 25.4908 101.149 25.8492 101.313C26.2119 101.481 26.5098 101.749 26.7429 102.116ZM26.1471 102.496C25.996 102.258 25.7974 102.094 25.547 102.004C25.2965 101.913 25.0202 101.896 24.7137 101.956C24.4071 102.017 24.0833 102.151 23.7508 102.366C23.4184 102.582 23.1593 102.811 22.978 103.062C22.7966 103.312 22.6973 103.567 22.6801 103.83C22.6628 104.089 22.7275 104.34 22.8787 104.577C23.0298 104.814 23.2241 104.979 23.4702 105.074C23.712 105.169 23.984 105.186 24.2905 105.125C24.5928 105.065 24.9123 104.931 25.2447 104.719C25.5772 104.508 25.8406 104.275 26.0262 104.024C26.2119 103.774 26.3155 103.515 26.3414 103.251C26.363 102.984 26.2982 102.733 26.1471 102.496Z" fill="white"/>
<path d="M24.9382 99.2966L20.4262 101.658L20.0549 100.95L23.9581 98.908L22.9607 96.9996L23.5652 96.6844L24.9382 99.2966Z" fill="white"/>
<path d="M23.1507 95.7691L18.4791 97.7984L18.1595 97.0644L22.2009 95.3071L21.3416 93.3296L21.9677 93.0576L23.1507 95.7691Z" fill="white"/>
<path d="M19.6578 85.2513C19.6923 85.3937 19.6664 85.5276 19.5844 85.6528C19.5024 85.778 19.3815 85.8601 19.226 85.8946C19.0663 85.9335 18.9195 85.9119 18.7986 85.8341C18.6734 85.7564 18.5956 85.6485 18.5611 85.5017C18.5266 85.3549 18.5482 85.2167 18.6259 85.0915C18.7036 84.9663 18.8245 84.8843 18.9842 84.8497C19.1397 84.8152 19.2865 84.8325 19.4117 84.9102C19.5412 84.9922 19.6232 85.1045 19.6578 85.2513Z" fill="white"/>
<path d="M18.289 75.338C18.3063 75.6877 18.2545 76.0202 18.1336 76.3353C18.0127 76.6505 17.8443 76.9312 17.6198 77.1773L17.0455 76.7326C17.2182 76.5383 17.3521 76.3224 17.4514 76.0806C17.5507 75.8388 17.5939 75.5927 17.5852 75.3466C17.5723 75.0444 17.4946 74.8112 17.3521 74.6558C17.2096 74.5003 17.0369 74.4226 16.8253 74.4356C16.6699 74.4442 16.5447 74.4831 16.454 74.5565C16.3633 74.6299 16.2899 74.7292 16.2295 74.8544C16.169 74.9796 16.1086 75.1221 16.0482 75.2818L15.7761 75.9986C15.7157 76.167 15.6337 76.3353 15.5257 76.4994C15.4221 76.6635 15.2839 76.8016 15.1155 76.9139C14.9472 77.0262 14.7399 77.0866 14.4895 77.0996C14.2218 77.1125 13.98 77.0521 13.7641 76.9182C13.5439 76.7844 13.3712 76.5944 13.2374 76.3483C13.1035 76.1022 13.0301 75.8172 13.0129 75.4934C12.9999 75.1955 13.0431 74.9105 13.1467 74.6385C13.2503 74.3665 13.3971 74.1333 13.5828 73.9347L14.1139 74.319C13.98 74.4874 13.8764 74.6644 13.803 74.8501C13.7296 75.0357 13.6994 75.243 13.7123 75.4675C13.7253 75.7309 13.7943 75.9338 13.9152 76.0806C14.0405 76.2274 14.2002 76.2965 14.3988 76.2878C14.5456 76.2792 14.6665 76.236 14.7572 76.154C14.8478 76.072 14.9212 75.964 14.9774 75.8345C15.0335 75.705 15.0853 75.5711 15.1371 75.4373L15.4005 74.7249C15.4739 74.5176 15.5689 74.3363 15.6812 74.1722C15.7934 74.0081 15.9316 73.8829 16.1 73.7879C16.2684 73.6929 16.4756 73.6411 16.7303 73.6282C17.0023 73.6152 17.2528 73.6757 17.4816 73.8095C17.7104 73.9434 17.9004 74.1377 18.0472 74.3967C18.1897 74.6515 18.2717 74.9666 18.289 75.338Z" fill="white"/>
<path d="M18.2761 70.5282C18.2675 70.8477 18.1984 71.1413 18.0688 71.409C17.9393 71.6767 17.7623 71.9141 17.5291 72.1128C17.296 72.3114 17.0153 72.4668 16.6872 72.5704C16.3591 72.674 15.9877 72.7215 15.5646 72.7086C15.1501 72.6956 14.7831 72.6222 14.4593 72.4927C14.1355 72.3632 13.8635 72.1905 13.6433 71.9746C13.4231 71.7587 13.2547 71.5083 13.1467 71.2233C13.0345 70.9384 12.987 70.6361 12.9956 70.3123C13.0043 70.0014 13.082 69.7251 13.2158 69.4833C13.354 69.2415 13.5094 69.0472 13.6821 68.8961L14.1787 69.3408C14.0405 69.4704 13.9282 69.6128 13.8376 69.7769C13.7469 69.941 13.6994 70.118 13.6908 70.3209C13.6821 70.6145 13.7512 70.8779 13.9023 71.1067C14.0491 71.3356 14.265 71.5169 14.55 71.6551C14.8306 71.7933 15.1717 71.8666 15.5732 71.8796C15.9748 71.8926 16.3202 71.8451 16.6181 71.7328C16.916 71.6249 17.1449 71.4608 17.3089 71.2449C17.473 71.029 17.5594 70.77 17.568 70.4721C17.5766 70.2432 17.5335 70.036 17.4385 69.8503C17.3478 69.6647 17.2183 69.4919 17.0585 69.3365L17.5853 68.9177C17.8184 69.1336 17.9954 69.3711 18.112 69.6344C18.2329 69.8978 18.2847 70.1957 18.2761 70.5282Z" fill="white"/>
<path d="M18.3193 67.9721L13.2633 67.3849L13.4533 65.7313C13.4921 65.3859 13.5785 65.0793 13.7037 64.8159C13.8289 64.5526 14.0059 64.3539 14.2391 64.2158C14.4722 64.0819 14.7702 64.0344 15.1372 64.0776C15.4912 64.1165 15.7719 64.233 15.9791 64.4187C16.1907 64.6044 16.3331 64.8418 16.4152 65.1311C16.4972 65.4204 16.5145 65.7356 16.4756 66.0853L16.3763 66.9445L18.4142 67.182L18.3193 67.9721ZM15.7373 66.8625L15.828 66.1026C15.8712 65.7356 15.828 65.4463 15.6941 65.2347C15.5646 65.0232 15.3487 64.898 15.0465 64.8634C14.7399 64.8289 14.5154 64.9023 14.3729 65.0793C14.2305 65.2606 14.1355 65.5327 14.0923 65.8997L14.0016 66.6596L15.7373 66.8625ZM18.6388 65.2131L16.2425 66.2062L15.8496 65.5629L18.7424 64.3151L18.6388 65.2131Z" fill="white"/>
<path d="M19.3857 61.5345C19.2994 61.9577 19.1137 62.3117 18.8331 62.5924C18.5524 62.8773 18.1984 63.0673 17.7709 63.1709C17.3435 63.2745 16.8642 63.2702 16.3289 63.158C15.7935 63.0457 15.3531 62.8557 15.012 62.5924C14.6709 62.329 14.4291 62.0095 14.2909 61.6425C14.1528 61.2712 14.1312 60.8739 14.2175 60.4508C14.3082 60.0234 14.4895 59.6693 14.7616 59.3844C15.0336 59.0994 15.379 58.9094 15.8021 58.8058C16.2252 58.7022 16.7002 58.7022 17.2356 58.8144C17.7666 58.9267 18.2113 59.1123 18.5611 59.38C18.9108 59.6477 19.1612 59.9629 19.3037 60.3342C19.4505 60.7099 19.4764 61.1071 19.3857 61.5345ZM18.6992 61.3921C18.7554 61.1157 18.7295 60.861 18.6129 60.6235C18.4963 60.3861 18.3106 60.1788 18.0473 60.0061C17.7839 59.8334 17.4601 59.7082 17.0715 59.6261C16.6829 59.5441 16.3375 59.5312 16.0309 59.5873C15.7244 59.6391 15.4783 59.7557 15.284 59.9284C15.0897 60.1011 14.9645 60.3256 14.9084 60.6019C14.8522 60.8783 14.8781 61.133 14.9861 61.3705C15.094 61.6079 15.2797 61.8109 15.5344 61.9793C15.7935 62.1476 16.1173 62.2729 16.5059 62.3549C16.8945 62.4369 17.2442 62.4499 17.5507 62.4024C17.8616 62.3506 18.1164 62.2383 18.315 62.0699C18.5136 61.9015 18.6388 61.6684 18.6992 61.3921Z" fill="white"/>
<path d="M20.0636 58.2489L15.1847 56.7895L15.4135 56.021L19.6362 57.2817L20.2536 55.2179L20.9099 55.4122L20.0636 58.2489Z" fill="white"/>
<path d="M21.2423 54.4839L16.4843 52.6791L16.7692 51.9278L20.8882 53.4908L21.6525 51.4745L22.2915 51.7163L21.2423 54.4839Z" fill="white"/>
<path d="M26.0866 44.5058C26.0089 44.631 25.901 44.713 25.7542 44.7432C25.6074 44.7778 25.4649 44.7519 25.3267 44.6655C25.1842 44.5792 25.0979 44.4669 25.059 44.3244C25.0245 44.182 25.0461 44.0481 25.1195 43.9229C25.1972 43.7934 25.3095 43.7113 25.4519 43.6768C25.5944 43.6422 25.7369 43.6682 25.8794 43.7545C26.0176 43.8365 26.1082 43.9531 26.1471 44.0956C26.1816 44.2381 26.1644 44.3762 26.0866 44.5058Z" fill="white"/>
<path d="M32.0191 36.4491C31.7859 36.7125 31.5182 36.9154 31.2117 37.0579C30.9051 37.2003 30.5856 37.2824 30.2575 37.304L30.1539 36.5872C30.4086 36.57 30.659 36.5052 30.9008 36.4016C31.1426 36.298 31.3455 36.1512 31.5096 35.9655C31.7125 35.7367 31.8162 35.5208 31.8248 35.3092C31.8334 35.0977 31.76 34.9206 31.6003 34.7825C31.4837 34.6788 31.3671 34.6227 31.2505 34.6098C31.134 34.5968 31.0131 34.6184 30.8835 34.6659C30.754 34.7134 30.6115 34.7738 30.4561 34.8472L29.761 35.1711C29.5969 35.2488 29.4242 35.3092 29.2342 35.3524C29.0442 35.3956 28.8499 35.3999 28.6513 35.361C28.4527 35.3222 28.2627 35.2229 28.0771 35.0588C27.8785 34.8818 27.7446 34.6702 27.6799 34.4241C27.6151 34.178 27.6237 33.9189 27.6971 33.6469C27.7748 33.3749 27.9173 33.1202 28.1332 32.8784C28.3318 32.6539 28.565 32.4812 28.8284 32.356C29.0917 32.2307 29.3594 32.166 29.6314 32.1573L29.7437 32.8007C29.5278 32.8266 29.3335 32.8827 29.1522 32.9647C28.9708 33.0468 28.8068 33.172 28.6556 33.3404C28.4829 33.5347 28.388 33.729 28.375 33.9233C28.362 34.1132 28.4311 34.2773 28.5779 34.4068C28.6859 34.5061 28.8024 34.5536 28.9277 34.558C29.0486 34.5623 29.1781 34.5364 29.3076 34.4846C29.4371 34.4327 29.5667 34.3723 29.7005 34.3075L30.387 33.9837C30.5856 33.8887 30.7799 33.8196 30.9699 33.7808C31.1642 33.7419 31.3542 33.7462 31.5398 33.7937C31.7255 33.8412 31.9111 33.9492 32.1011 34.1176C32.304 34.2989 32.4422 34.5148 32.5156 34.7695C32.589 35.0243 32.5847 35.2963 32.5113 35.5856C32.4379 35.8748 32.2695 36.1684 32.0191 36.4491Z" fill="white"/>
<path d="M35.3653 32.9863C35.1365 33.2065 34.8817 33.3706 34.6011 33.4742C34.3204 33.5779 34.0311 33.621 33.7246 33.6038C33.418 33.5865 33.1115 33.4958 32.8049 33.3447C32.4984 33.1893 32.1962 32.9604 31.9069 32.6582C31.6176 32.3603 31.406 32.0494 31.2679 31.7299C31.1297 31.4104 31.052 31.0995 31.0433 30.7887C31.0347 30.4821 31.0908 30.1842 31.2117 29.9035C31.3326 29.6229 31.5053 29.3682 31.7385 29.148C31.963 28.9321 32.2091 28.7853 32.4768 28.7076C32.7445 28.6298 32.9906 28.5996 33.2194 28.6169L33.2626 29.2818C33.0726 29.2775 32.8913 29.3034 32.7143 29.3552C32.5372 29.407 32.3775 29.502 32.2307 29.6445C32.0191 29.8474 31.8853 30.0849 31.8335 30.3526C31.7817 30.6203 31.8076 30.9009 31.9155 31.1945C32.0234 31.4881 32.2134 31.7774 32.4898 32.0667C32.7661 32.356 33.051 32.5632 33.3403 32.6927C33.6296 32.8223 33.9059 32.8654 34.1736 32.8223C34.4413 32.7834 34.6831 32.6582 34.899 32.451C35.0631 32.2912 35.1796 32.1142 35.2401 31.9156C35.3048 31.717 35.3308 31.5054 35.3264 31.2809L35.9957 31.35C36.0129 31.6651 35.9698 31.9587 35.8705 32.2308C35.7712 32.5028 35.6071 32.7575 35.3653 32.9863Z" fill="white"/>
<path d="M37.1786 31.1902L33.9663 27.2396L35.2573 26.1904C35.5293 25.9702 35.8013 25.8104 36.0776 25.7068C36.3496 25.6075 36.6173 25.5859 36.8807 25.6507C37.1441 25.7154 37.3859 25.8925 37.619 26.1774C37.8435 26.4537 37.9644 26.7301 37.986 27.0107C38.0076 27.2914 37.9428 27.5634 37.8004 27.8224C37.6579 28.0815 37.4506 28.3276 37.1786 28.5478L36.5094 29.0918L37.8047 30.685L37.1786 31.1902ZM36.1035 28.5953L36.6994 28.1117C36.9843 27.8786 37.157 27.6411 37.2089 27.3993C37.265 27.1575 37.1959 26.9157 37.0016 26.6783C36.8073 26.4408 36.5957 26.3329 36.3669 26.3631C36.1381 26.3933 35.879 26.5228 35.5941 26.756L34.9982 27.2396L36.1035 28.5953ZM39.3331 29.4416L36.9239 28.4787L37.0923 27.7447L40.0369 28.8673L39.3331 29.4416Z" fill="white"/>
<path d="M42.4462 27.3216C42.0878 27.5634 41.7079 27.6886 41.3106 27.6929C40.9134 27.7015 40.5248 27.5893 40.1449 27.3648C39.7649 27.1402 39.4238 26.8035 39.1216 26.3501C38.8151 25.8968 38.6337 25.452 38.5733 25.0246C38.5128 24.5972 38.5603 24.1999 38.7201 23.8416C38.8798 23.4832 39.1389 23.181 39.4972 22.9392C39.8599 22.6931 40.2356 22.5679 40.6285 22.5549C41.0214 22.542 41.4013 22.6456 41.777 22.8658C42.1526 23.0817 42.4894 23.4184 42.7959 23.8718C43.0981 24.3208 43.2838 24.7655 43.3486 25.2016C43.4133 25.6377 43.3702 26.0392 43.2147 26.4019C43.0593 26.7646 42.8089 27.0798 42.4462 27.3216ZM42.0533 26.7387C42.2864 26.5833 42.4462 26.3803 42.5282 26.1256C42.6103 25.8709 42.6189 25.5945 42.5541 25.288C42.4894 24.9814 42.3426 24.6619 42.1224 24.3338C41.9022 24.0056 41.6604 23.7552 41.4056 23.5782C41.1509 23.4055 40.8918 23.3105 40.6328 23.3019C40.3737 23.2932 40.1276 23.3623 39.8945 23.5221C39.6613 23.6818 39.5016 23.8804 39.4152 24.1265C39.3289 24.3726 39.3159 24.6446 39.385 24.9469C39.4541 25.2491 39.5965 25.5643 39.8167 25.8924C40.0369 26.2206 40.2787 26.4753 40.5335 26.6567C40.7882 26.838 41.0516 26.933 41.315 26.9503C41.5697 26.9632 41.8201 26.8941 42.0533 26.7387Z" fill="white"/>
<path d="M45.2225 25.4434L42.7441 20.9963L43.4436 20.6077L45.5895 24.459L47.4719 23.4098L47.8044 24.0056L45.2225 25.4434Z" fill="white"/>
<path d="M48.6938 23.5652L46.5436 18.9497L47.2689 18.6129L49.1342 22.6067L51.0857 21.6957L51.375 22.3174L48.6938 23.5652Z" fill="white"/>
<path d="M60.753 19.3902C60.6105 19.4247 60.4767 19.3988 60.3515 19.3168C60.2263 19.2347 60.1442 19.1138 60.1097 18.9584C60.0708 18.7986 60.0924 18.6518 60.1701 18.531C60.2479 18.4057 60.3601 18.328 60.5026 18.2978C60.6494 18.2633 60.7876 18.2848 60.9128 18.3626C61.038 18.4403 61.1157 18.5612 61.1546 18.7209C61.1891 18.8764 61.1718 19.0232 61.0941 19.1484C61.0164 19.2736 60.8998 19.3556 60.753 19.3902Z" fill="white"/>
</g>
<defs>
<clipPath id="clip0_192_353">
<rect width="120" height="119.823" fill="white" transform="translate(13 13)"/>
</clipPath>
</defs>
</svg>
